<svg id="Group_2082" data-name="Group 2082" xmlns="http://www.w3.org/2000/svg" xmlns:xlink="http://www.w3.org/1999/xlink" width="1317.722" height="1330.829" viewBox="0 0 1317.722 1330.829">
  <defs>
    <clipPath id="clip-path">
      <path id="Path_500" data-name="Path 500" d="M0,964.374H1317.722V-366.455H0Z" transform="translate(0 366.455)" fill="none"/>
    </clipPath>
  </defs>
  <g id="Group_2049" data-name="Group 2049" clip-path="url(#clip-path)">
    <g id="Group_2046" data-name="Group 2046" transform="translate(72.686 1.816)">
      <path id="Path_497" data-name="Path 497" d="M725.124,799.735,327.076,1022.648-275.542-53.44,76.973-250.848c166.975-93.514,376.8-67,475.024,108.415,35.9,64.095,49.18,162.995,9.787,227.162,111.458-22.542,266.562,36.828,343.073,173.45C1021.977,467.325,927.526,686.388,725.124,799.735Z" transform="translate(275.542 303.894)" fill="none" stroke="#fff" stroke-width="3"/>
    </g>
    <g id="Group_2047" data-name="Group 2047" transform="translate(2.561 21.472)">
      <path id="Path_498" data-name="Path 498" d="M834.126,723.256,488.7,1021.275-316.962,87.456l305.91-263.921c144.9-125.019,355.783-141.009,487.11,11.214,47.992,55.618,80.786,149.866,55.023,220.614,104.7-44.375,268.541-17.228,370.829,101.33C1058.5,338.191,1009.77,571.715,834.126,723.256Z" transform="translate(316.962 274.832)" fill="none" stroke="#fb3099" stroke-width="3"/>
    </g>
    <g id="Group_2048" data-name="Group 2048" transform="translate(174.143 6.45)">
      <path id="Path_499" data-name="Path 499" d="M576.664,857.33,140.247,990.266-219.128-189.549,167.364-307.275c183.074-55.767,382.421,14.864,441,207.184,21.412,70.276,13.3,169.735-38.862,224.028,113.7,1.74,252.583,92.806,298.211,242.6C937.553,595.842,798.578,789.735,576.664,857.33Z" transform="translate(219.128 325.779)" fill="none" stroke="#00b8f1" stroke-width="3"/>
    </g>
  </g>
</svg>
