 <svg width="256px" height="256px" viewBox="-4.8 -4.8 57.60 57.60" id="Layer_2" 
 data-name="Layer 2" xmlns="http://www.w3.org/2000/svg" fill="#000000" stroke="#000000" 
 stroke-width="0.096"><g id="SVGRepo_bgCarrier" stroke-width="0"></g><g id="SVGRepo_tracerCarrier" 
 stroke-linecap="round"
  stroke-linejoin="round"
  stroke="#CCCCCC" stroke-width="1.6320000000000001"></g>
    <g id="SVGRepo_iconCarrier">
    <defs>
    <style>.cls-1{fill:none;stroke:red;stroke-linecap:round;stroke-linejoin:round;}</style>
    </defs>
     <!-- <path class="cls-1" d="M40.5,5.5H7.5a2,2,0,0,0-2,2v33a2,2,0,0,0,2,2h33a2,2,0,0,0,2-2V7.5A2,2,0,0,0,40.5,5.5Z"></path> -->
    <line class="cls-1" x1="14.98" y1="37.5" x2="14.98" y2="10.5"></line><path class="cls-1" d="M15,10.5H26.29A6.74,6.74,0,0,1,33,17.25h0A6.74,6.74,0,0,1,26.29,24H15"></path>
    <path class="cls-1" d="M15,24H26.29A6.74,6.74,0,0,1,33,30.75h0a6.74,6.74,0,0,1-6.73,6.75H15"></path></g></svg>

  